Coordinates
version=1
nRows=9
nColumns=65
inDegrees=yes

Units are S.I. units (second, meters, Newtons, ...)
If the header above contains a line with 'inDegrees', this indicates whether rotational values are in degrees (yes) or radians (no).

endheader
time	pelvis_tilt	pelvis_list	pelvis_rot	pelvis_tx	pelvis_ty	pelvis_tz	hip_flex_r	hip_add_r	hip_rot_r	pf_flex_r	pf_rot_r	pf_tilt_r	pf_tx_r	pf_ty_r	pf_tz_r	knee_flex_r	knee_add_r	knee_rot_r	knee_tx_r	knee_ty_r	knee_tz_r	meniscus_lateral_flex_r	meniscus_lateral_add_r	meniscus_lateral_rot_r	meniscus_lateral_tx_r	meniscus_lateral_ty_r	meniscus_lateral_tz_r	meniscus_medial_flex_r	meniscus_medial_add_r	meniscus_medial_rot_r	meniscus_medial_tx_r	meniscus_medial_ty_r	meniscus_medial_tz_r	ankle_flex_r	subt_angle_r	mtp_angle_r	hip_flex_l	hip_add_l	hip_rot_l	pf_l_r3	pf_l_tx	pf_l_ty	knee_flex_l	ankle_flex_l	subt_angle_l	mtp_angle_l	lumbar_ext	lumbar_latbend	lumbar_rot	neck_ext	neck_latbend	neck_rot	arm_add_r	arm_flex_r	arm_rot_r	elbow_flex_r	pro_sup_r	wrist_flex_r	arm_add_l	arm_flex_l	arm_rot_l	elbow_flex_l	pro_sup_l	wrist_flex_l
      0.59000000	     -5.13512296	     -1.05636442	     -1.55250789	     -0.86469612	      0.91259478	     -0.17694453	     -1.28198639	      3.75894015	     -4.04105476	      8.30391745	      0.26744645	     -4.49729920	      0.05298768	      0.00874539	      0.00481413	     -0.89916771	     -0.17468492	     -0.03520693	      0.00175537	      0.00017524	     -0.00029866	      3.75772717	     -2.25927759	      3.21225755	     -0.00048391	     -0.00111902	     -0.00264418	      6.07673018	      0.23552037	      1.00167253	      0.00609473	     -0.00039327	      0.00035451	     -2.57349021	    -11.60662674	      0.00000000	     26.37088893	      5.87687143	      4.82807575	      0.06513700	      0.04435000	     -0.41871200	      0.57899570	      0.07660389	      0.13171162	      0.00000000	    -11.51622160	     -1.34686255	      1.64839616	      0.00000000	      0.00000000	      0.00000000	    -18.05502389	     23.03481548	     26.63579268	     19.72322750	     62.20185066	      0.00000000	    -16.77380842	      1.91004222	     23.19150283	     22.87924662	     60.42996084	      0.00000000
      0.59500000	     -4.87559827	     -0.56409281	     -1.70428250	     -0.85751669	      0.91274434	     -0.17742286	     -2.47856814	      3.14183907	     -3.44675295	      7.88899155	      0.31003360	     -4.55553957	      0.05293315	      0.00928848	      0.00484376	     -1.64048682	     -0.19325335	     -0.18851390	      0.00163030	      0.00011725	     -0.00024996	      4.05913146	     -2.26596344	      3.32475598	     -0.00029071	     -0.00108961	     -0.00259161	      6.15683620	      0.31901637	      0.98628810	      0.00617681	     -0.00043631	      0.00035951	     -1.80449770	    -10.59398791	      0.00000000	     25.53245689	      4.95907913	      4.17141581	      0.06513700	      0.04435000	     -0.41871200	      0.52397886	      0.07953197	      0.12204002	      0.00000000	    -11.19311615	     -1.76987163	      1.29799741	      0.00000000	      0.00000000	      0.00000000	    -18.42639393	     23.72710775	     27.27173194	     20.56789790	     62.29065692	      0.00000000	    -16.72077085	      0.32285968	     23.46663936	     21.30245029	     60.38500088	      0.00000000
      0.60000000	     -4.71155825	     -0.57385385	     -1.75328913	     -0.85237392	      0.91164440	     -0.17759423	     -3.00970272	      3.04575020	     -3.45930515	      7.95270315	      0.30350137	     -4.54660065	      0.05294136	      0.00920506	      0.00483924	     -1.52664278	     -0.19033224	     -0.16496508	      0.00164956	      0.00012857	     -0.00025972	      4.01285449	     -2.26493083	      3.30747266	     -0.00032036	     -0.00109413	     -0.00259968	      6.14454560	      0.30620380	      0.98863918	      0.00616420	     -0.00042971	      0.00035874	     -1.78511882	    -10.56197124	      0.00000000	     26.20706202	      5.02460249	      4.15012980	      0.06513700	      0.04435000	     -0.41871200	      0.51633942	      0.07985591	      0.12160799	      0.00000000	    -11.23948955	     -1.82776828	      1.33587259	      0.00000000	      0.00000000	      0.00000000	    -18.41846067	     23.77846866	     27.29743586	     20.60528639	     62.29426577	      0.00000000	    -16.70907180	      0.26764579	     23.47685314	     21.24792572	     60.38340974	      0.00000000
      0.60500000	     -5.15005017	     -0.71266428	     -1.83009638	     -0.84576187	      0.91056939	     -0.17744266	     -3.25655509	      3.30365466	     -3.51595764	      7.64400798	      0.33518941	     -4.58992237	      0.05290047	      0.00960926	      0.00486133	     -2.07818898	     -0.20433054	     -0.27904123	      0.00155685	      0.00008429	     -0.00021973	      4.23711823	     -2.26989631	      3.39118608	     -0.00017660	     -0.00107225	     -0.00256058	      6.20411269	      0.36833341	      0.97719384	      0.00622526	     -0.00046174	      0.00036246	     -1.33901436	    -10.20901209	      0.00000000	     26.33754277	      5.00718235	      3.84169082	      0.06513700	      0.04435000	     -0.41871200	      0.46261493	      0.08204918	      0.11695742	      0.00000000	    -11.56861381	     -1.92920555	      1.50727785	      0.00000000	      0.00000000	      0.00000000	    -18.58323390	     24.24434167	     27.57250357	     20.99214245	     62.33450372	      0.00000000	    -16.76532328	     -0.46104804	     23.57818045	     20.52693215	     60.36277637	      0.00000000
      0.61000000	     -5.09006382	     -0.69552626	     -2.01363687	     -0.83891615	      0.90986685	     -0.17771096	     -4.01868674	      3.23616259	     -3.31160338	      7.41373878	      0.35877779	     -4.62256188	      0.05287097	      0.00991110	      0.00487746	     -2.48971880	     -0.21430526	     -0.36427776	      0.00148618	      0.00005186	     -0.00018799	      4.40442281	     -2.27383575	      3.45363249	     -0.00006943	     -0.00105591	     -0.00253142	      6.24844049	      0.41461352	      0.96876946	      0.00627048	     -0.00048558	      0.00036523	     -0.72691656	     -9.62797606	      0.00000000	     25.83055076	      4.72687560	      2.93683795	      0.06513700	      0.04435000	     -0.41871200	      0.40932811	      0.08166822	      0.11037774	      0.00000000	    -11.10711224	     -1.85449856	      1.65118881	      0.00000000	      0.00000000	      0.00000000	    -18.93229561	     24.78689128	     27.98452115	     21.55006362	     62.39424305	      0.00000000	    -16.80673130	     -1.56597631	     23.72871029	     19.46072116	     60.33194729	      0.00000000
      0.61500000	     -5.02792860	     -0.74264902	     -1.71035360	     -0.83317836	      0.90859269	     -0.17817547	     -4.58969187	      3.30595929	     -3.24205755	      7.45282668	      0.35482828	     -4.61674760	      0.05287475	      0.00985960	      0.00487508	     -2.41983735	     -0.21285583	     -0.34967024	      0.00149971	      0.00005908	     -0.00019631	      4.37602621	     -2.27295243	      3.44302412	     -0.00008753	     -0.00105869	     -0.00253636	      6.24101113	      0.40683089	      0.97008578	      0.00626308	     -0.00048159	      0.00036476	     -0.61334855	     -9.49837575	      0.00000000	     26.44484856	      4.66612353	      2.85367986	      0.06513700	      0.04435000	     -0.41871200	      0.39225384	      0.08175956	      0.10870809	      0.00000000	    -11.20460375	     -1.98732522	      1.79052650	      0.00000000	      0.00000000	      0.00000000	    -18.96696456	     24.94441910	     28.07502575	     21.67517940	     62.40702633	      0.00000000	    -16.76012655	     -1.81235625	     23.76478217	     19.24237591	     60.32551782	      0.00000000
      0.62000000	     -5.29667632	     -0.92093097	     -1.61467264	     -0.82695521	      0.90708765	     -0.17835490	     -4.89500516	      3.54156572	     -3.26227698	      7.31441493	      0.36903914	     -4.63617494	      0.05285633	      0.01004083	      0.00488499	     -2.66715390	     -0.21907880	     -0.40079024	      0.00145857	      0.00003905	     -0.00017908	      4.47658172	     -2.27517845	      3.48055462	     -0.00002307	     -0.00104888	     -0.00251882	      6.26772118	      0.43469141	      0.96495008	      0.00629045	     -0.00049595	      0.00036643	     -0.33851185	     -9.32218508	      0.00000000	     26.80606562	      4.74740266	      2.56997666	      0.06513700	      0.04435000	     -0.41871200	      0.35223385	      0.08297078	      0.10615287	      0.00000000	    -11.34982365	     -1.98129492	      2.03306209	      0.00000000	      0.00000000	      0.00000000	    -19.13424381	     25.22391040	     28.21034668	     21.87422693	     62.42860889	      0.00000000	    -16.78960711	     -2.33642291	     23.81404769	     18.82115351	     60.31351998	      0.00000000
      0.62500000	     -5.58156482	     -1.12158166	     -2.05214974	     -0.82016038	      0.90570972	     -0.17796522	     -5.20586264	      3.72744496	     -3.26438897	      7.06992702	      0.39412771	     -4.67052097	      0.05282405	      0.01036094	      0.00490242	     -3.10396939	     -0.22995809	     -0.49109117	      0.00138466	      0.00000449	     -0.00014926	      4.65416756	     -2.27915177	      3.54683216	      0.00009077	     -0.00103155	     -0.00248786	      6.31489579	      0.48388037	      0.95589700	      0.00633875	     -0.00052131	      0.00036937	      0.13312632	     -9.04586951	      0.00000000	     26.55112690	      4.97610768	      1.70452341	      0.06513700	      0.04435000	     -0.41871200	      0.29646522	      0.08360527	      0.10274366	      0.00000000	    -11.06386998	     -1.74397924	      2.28578744	      0.00000000	      0.00000000	      0.00000000	    -19.51513428	     25.59149308	     28.41785323	     22.17884260	     62.46324960	      0.00000000	    -16.88031139	     -3.21338714	     23.88649556	     18.12637929	     60.29375958	      0.00000000
      0.63000000	     -5.44602180	     -1.12388111	     -2.21629995	     -0.81447605	      0.90419243	     -0.17810766	     -5.72726006	      3.58799712	     -3.28339290	      7.13293886	      0.38766873	     -4.66165289	      0.05283223	      0.01027845	      0.00489797	     -2.99140215	     -0.22719830	     -0.46783506	      0.00140414	      0.00001479	     -0.00016019	      4.60841638	     -2.27810553	      3.52975885	      0.00006145	     -0.00103602	     -0.00249584	      6.30274045	      0.47121543	      0.95822032	      0.00632633	     -0.00051478	      0.00036861	      0.15539154	     -9.02715962	      0.00000000	     27.12672890	      5.08461615	      1.58903245	      0.06513700	      0.04435000	     -0.41871200	      0.28932302	      0.08370603	      0.10251357	      0.00000000	    -11.04423054	     -1.74270373	      2.31548102	      0.00000000	      0.00000000	      0.00000000	    -19.53408075	     25.62010967	     28.43364469	     22.20225066	     62.46580012	      0.00000000	    -16.87601476	     -3.27519396	     23.89236893	     18.07956201	     60.29240379	      0.00000000
